<svg id="Layer_1" data-name="Layer 1" xmlns="http://www.w3.org/2000/svg" width="50.6" height="100" viewBox="0 0 50.6 100"><title>rocket</title><path d="M46.1,74.1,38.8,61.9a58.1,58.1,0,0,0,2.4-15.1,14.8,14.8,0,0,0-.1-2.1c-.7-13.5-6-18.4-9.9-22.3a19.9,19.9,0,0,1-4.3-5.8h0a3.8,3.8,0,0,0,1.6-.5,2.5,2.5,0,0,0,1.1-2.1l-.2-.5c-.3-.3-1.2-.5-2.8-.6a7.8,7.8,0,0,1,.1-2.6c0-.4,0-.4.7-.5h.1a1,1,0,0,0,.8-.5A1.5,1.5,0,0,0,28,7.7V7.3a16.7,16.7,0,0,1-1.6-5.4C26.3.6,26,.2,25.7.1h-.6c-.2.1-.6.3-.6,1.8S24.2,4,22.9,7.4h-.1v.2a1.5,1.5,0,0,0-.4,1,.9.9,0,0,0,.1.5,1,1,0,0,0,.8.5h.1c.7.1.7.1.7.5a9.2,9.2,0,0,1,.1,1.6v1c-1.6.1-2.5.3-2.8.6l-.2.5A2.3,2.3,0,0,0,22.3,16a3.4,3.4,0,0,0,1.6.5v.2a18.6,18.6,0,0,1-4.5,5.7c-3.9,4-9.2,8.8-9.9,22.3a14.8,14.8,0,0,0-.1,2.1,54.2,54.2,0,0,0,2.5,15.1L4.5,74.1,0,100H5L9.8,83.5l7.9-6.6H18l.8.3c.2.8.3,1.7.4,2.2s.3,1.4,4,1.7V100h4.2V81.2c3.9-.2,4.1-1.3,4.1-1.7a10.9,10.9,0,0,0,.4-2.2l.9-.3H33l7.8,6.6L45.6,100h5Z" fill="#b4fff4"/></svg>