<svg xmlns="http://www.w3.org/2000/svg" width="128" height="128" viewBox="0 0 128 128"><path fill="#b4fff4" d="M91.6 94.8l-9.4-15.6a68.4 68.4 0 0 0 3.1-19.3 22.6 22.6 0 0 0-.1-2.6c-.9-17.4-7.6-23.7-12.7-28.7a25.2 25.2 0 0 1-5.4-7.3H67a6.5 6.5 0 0 0 2.1-.7 3 3 0 0 0 1.4-2.7l-.2-.6c-.4-.4-1.6-.7-3.6-.8a9.2 9.2 0 0 1 .1-3.3c0-.6 0-.6.9-.7h.1a1.2 1.2 0 0 0 1.1-.7c.3-.6-.1-1.4-.4-1.9h-.1v-.5c-1.3-3.3-2.1-5.7-2.1-7S65.9.3 65.6.1h-.9c-.2.1-.7.4-.7 2.3s-.4 2.8-2.1 7.1v.2h-.1a2.4 2.4 0 0 0-.5 1.4.7.7 0 0 0 .1.5 1.2 1.2 0 0 0 1.1.7h.1c.9.1.9.1 1 .7a14.1 14.1 0 0 1 .1 2 5.3 5.3 0 0 1-.1 1.3c-2 .1-3.1.4-3.6.8l-.3.6a3.3 3.3 0 0 0 1.5 2.7 6.5 6.5 0 0 0 2.1.7h-.1c-1.2 3-3.3 5-5.7 7.4-5 5-11.8 11.3-12.7 28.6 0 .9-.1 1.7-.1 2.6A68.4 68.4 0 0 0 47.9 79l-9.5 15.8-5.8 33.2h6.5l6-21.1 10.1-8.5h.5l1 .4c.2 1 .4 2.1.6 2.8s.3 1.8 5 2.2v24h5.3v-24c5-.3 5.3-1.6 5.4-2.1s.3-1.8.5-2.8l1.1-.4h.2l10.1 8.4 6 21.1h6.5z"/></svg>